<svg width="1920" height="1080" viewBox="0 0 1920 1080" xmlns="http://www.w3.org/2000/svg"><rect width="1920" height="1080" fill="#fffff0"/><path d="M 0,1080 C 0,1080 0,216 0,216 C 176.66028708133973,250.07655502392345 353.32057416267946,284.1531100478469 594,284 C 834.6794258373205,283.8468899521531 1139.377990430622,249.46411483253584 1152,250 C 1164.622009569378,250.53588516746416 885.1674641148327,285.99043062200957 976,294 C 1066.8325358851673,302.00956937799043 1527.952153110048,282.57416267942585 1747,265 C 1966.047846889952,247.42583732057415 1943.023923444976,231.71291866028707 1920,216 C 1920,216 1920,1080 1920,1080 Z" fill="#9f9f89" opacity="0.12"/><path d="M 0,1080 C 0,1080 0,432 0,432 C 316.07655502392345,410.8612440191388 632.1531100478469,389.7224880382775 758,410 C 883.8468899521531,430.2775119617225 819.4641148325359,491.9712918660287 866,491 C 912.5358851674641,490.0287081339713 1069.9904306220096,426.3923444976076 1317,429 C 1564.0095693779904,431.6076555023924 1900.574162679426,500.4593301435407 2016,512 C 2131.425837320574,523.5406698564593 2025.712918660287,477.77033492822966 1920,432 C 1920,432 1920,1080 1920,1080 Z" fill="#9f9f89" opacity="0.24"/><path d="M 0,1080 C 0,1080 0,648 0,648 C 131.31100478468898,608.3827751196172 262.62200956937795,568.7655502392345 490,575 C 717.377990430622,581.2344497607655 1040.8229665071772,633.3205741626795 1245,665 C 1449.1770334928228,696.6794258373205 1534.0861244019138,707.9521531100479 1541,679 C 1547.9138755980862,650.0478468899521 1476.8325358851675,580.8708133971292 1527,569 C 1577.1674641148325,557.1291866028708 1748.5837320574162,602.5645933014355 1920,648 C 1920,648 1920,1080 1920,1080 Z" fill="#9f9f89" opacity="0.36"/><path d="M 0,1080 C 0,1080 0,864 0,864 C -25.090909090909108,839.665071770335 -50.181818181818215,815.33014354067 97,829 C 244.18181818181822,842.66985645933 563.6363636363637,894.3444976076554 817,897 C 1070.3636363636363,899.6555023923446 1257.6363636363635,853.2918660287082 1227,824 C 1196.3636363636365,794.7081339712918 947.8181818181818,782.4880382775119 1027,792 C 1106.1818181818182,801.5119617224881 1513.090909090909,832.7559808612441 1920,864 C 1920,864 1920,1080 1920,1080 Z" fill="#9f9f89" opacity="0.48"/></svg>